# xmcd CD database file
#
# Track frame offsets:
#	150
#	20700
#	60090
#	79853
#	102684
#	121267
#	153872
#	169411
#	189526
#	203113
#	211234
#	240755
#
# Disc length: 3535 seconds
#
# Revision: 0
# Processed by: cddbd v1.4PL0 Copyright (c) Steve Scherf et al.
# Submitted via: CDex 1.50
#
DISCID=970dcd0c
DTITLE=Peff - Cardioid
DYEAR=2000
DGENRE=
TTITLE0=Axis Mundi
TTITLE1=Paradigm Shift
TTITLE2=The Premise
TTITLE3=Ideas
TTITLE4=Archer
TTITLE5=e-priori [Studio Mix]
TTITLE6=Profane
TTITLE7=Mix of Uncertainty
TTITLE8=Testament [B-Side]
TTITLE9=Phuture [B-Side]
TTITLE10=Archer [Mix 2]
TTITLE11=Bonus Track
EXTD=YEAR: 2000
EXTT0=
EXTT1=
EXTT2=
EXTT3=
EXTT4=
EXTT5=
EXTT6=
EXTT7=
EXTT8=
EXTT9=
EXTT10=
EXTT11=
PLAYORDER=
